{"sha256": "bc642fa39629de6c2415851d8b363a50710fe8da5605be101728b025195d98ea", "stored_path": "C:\\Users\\jinoh\\Downloads\\personal projects\\Blackline-AI-Forensic-Tool-for-Detecting-Deepfake-and-Synthetic-Media\\data\\raw\\bc642fa39629de6c2415851d8b363a50710fe8da5605be101728b025195d98ea\\aassnaulhq.mp4", "mime": "video/mp4", "probe": {"streams": [{"index": 0, "codec_name": "h264", "codec_long_name": "H.264 / AVC / MPEG-4 AVC / MPEG-4 part 10", "profile": "High", "codec_type": "video", "codec_tag_string": "avc1", "codec_tag": "0x31637661", "width": 1920, "height": 1080, "coded_width": 1920, "coded_height": 1080, "closed_captions": 0, "film_grain": 0, "has_b_frames": 2, "sample_aspect_ratio": "1:1", "display_aspect_ratio": "16:9", "pix_fmt": "yuv420p", "level": 40, "chroma_location": "left", "field_order": "progressive", "refs": 1, "is_avc": "true", "nal_length_size": "4", "id": "0x1", "r_frame_rate": "298799/10000", "avg_frame_rate": "298799/10000", "time_base": "1/298799", "start_pts": 0, "start_time": "0.000000", "duration_ts": 2990000, "duration": "10.006727", "bit_rate": "5506817", "bits_per_raw_sample": "8", "nb_frames": "299", "extradata_size": 42, "disposition": {"default": 1, "dub": 0, "original": 0, "comment": 0, "lyrics": 0, "karaoke": 0, "forced": 0, "hearing_impaired": 0, "visual_impaired": 0, "clean_effects": 0, "attached_pic": 0, "timed_thumbnails": 0, "non_diegetic": 0, "captions": 0, "descriptions": 0, "metadata": 0, "dependent": 0, "still_image": 0, "multilayer": 0}, "tags": {"language": "und", "handler_name": "VideoHandler", "vendor_id": "[0][0][0][0]"}}, {"index": 1, "codec_name": "aac", "codec_long_name": "AAC (Advanced Audio Coding)", "profile": "LC", "codec_type": "audio", "codec_tag_string": "mp4a", "codec_tag": "0x6134706d", "sample_fmt": "fltp", "sample_rate": "48000", "channels": 1, "channel_layout": "mono", "bits_per_sample": 0, "initial_padding": 0, "id": "0x2", "r_frame_rate": "0/0", "avg_frame_rate": "0/0", "time_base": "1/48000", "start_pts": 0, "start_time": "0.000000", "duration_ts": 480000, "duration": "10.000000", "bit_rate": "69280", "nb_frames": "470", "extradata_size": 5, "disposition": {"default": 1, "dub": 0, "original": 0, "comment": 0, "lyrics": 0, "karaoke": 0, "forced": 0, "hearing_impaired": 0, "visual_impaired": 0, "clean_effects": 0, "attached_pic": 0, "timed_thumbnails": 0, "non_diegetic": 0, "captions": 0, "descriptions": 0, "metadata": 0, "dependent": 0, "still_image": 0, "multilayer": 0}, "tags": {"language": "und", "handler_name": "SoundHandler", "vendor_id": "[0][0][0][0]"}}], "format": {"filename": "C:\\Users\\jinoh\\Downloads\\personal projects\\Blackline-AI-Forensic-Tool-for-Detecting-Deepfake-and-Synthetic-Media\\data\\raw\\bc642fa39629de6c2415851d8b363a50710fe8da5605be101728b025195d98ea\\aassnaulhq.mp4", "nb_streams": 2, "nb_programs": 0, "nb_stream_groups": 0, "format_name": "mov,mp4,m4a,3gp,3g2,mj2", "format_long_name": "QuickTime / MOV", "start_time": "0.000000", "duration": "10.006727", "size": "6987195", "bit_rate": "5585998", "probe_score": 100, "tags": {"major_brand": "isom", "minor_version": "512", "compatible_brands": "isomiso2avc1mp41", "encoder": "Lavf57.71.100"}}}, "exif": {"SourceFile": "C:/Users/jinoh/Downloads/personal projects/Blackline-AI-Forensic-Tool-for-Detecting-Deepfake-and-Synthetic-Media/data/raw/bc642fa39629de6c2415851d8b363a50710fe8da5605be101728b025195d98ea/aassnaulhq.mp4", "ExifToolVersion": 13.34, "FileName": "aassnaulhq.mp4", "Directory": "C:/Users/jinoh/Downloads/personal projects/Blackline-AI-Forensic-Tool-for-Detecting-Deepfake-and-Synthetic-Media/data/raw/bc642fa39629de6c2415851d8b363a50710fe8da5605be101728b025195d98ea", "FileSize": 6987195, "ZoneIdentifier": "Exists", "FileModifyDate": "2025:08:19 19:54:09+10:00", "FileAccessDate": "2025:08:20 23:20:46+10:00", "FileCreateDate": "2025:08:20 17:45:43+10:00", "FilePermissions": 100666, "FileType": "MP4", "FileTypeExtension": "MP4", "MIMEType": "video/mp4", "MajorBrand": "isom", "MinorVersion": "0.2.0", "CompatibleBrands": ["isom", "iso2", "avc1", "mp41"], "MediaDataSize": 6974937, "MediaDataOffset": 48, "MovieHeaderVersion": 0, "CreateDate": "0000:00:00 00:00:00", "ModifyDate": "0000:00:00 00:00:00", "TimeScale": 1000, "Duration": 10.022, "PreferredRate": 1, "PreferredVolume": 1, "PreviewTime": 0, "PreviewDuration": 0, "PosterTime": 0, "SelectionTime": 0, "SelectionDuration": 0, "CurrentTime": 0, "NextTrackID": 3, "TrackHeaderVersion": 0, "TrackCreateDate": "0000:00:00 00:00:00", "TrackModifyDate": "0000:00:00 00:00:00", "TrackID": 1, "TrackDuration": 10.007, "TrackLayer": 0, "TrackVolume": 0, "ImageWidth": 1920, "ImageHeight": 1080, "GraphicsMode": 0, "OpColor": "0 0 0", "CompressorID": "avc1", "SourceImageWidth": 1920, "SourceImageHeight": 1080, "XResolution": 72, "YResolution": 72, "BitDepth": 24, "PixelAspectRatio": "1:1", "VideoFrameRate": 29.8799, "MatrixStructure": "1 0 0 0 1 0 0 0 1", "MediaHeaderVersion": 0, "MediaCreateDate": "0000:00:00 00:00:00", "MediaModifyDate": "0000:00:00 00:00:00", "MediaTimeScale": 48000, "MediaDuration": 10.0213333333333, "MediaLanguageCode": "und", "HandlerDescription": "SoundHandler", "Balance": 0, "AudioFormat": "mp4a", "AudioChannels": 2, "AudioBitsPerSample": 16, "AudioSampleRate": 48000, "HandlerType": "mdir", "HandlerVendorID": "appl", "Encoder": "Lavf57.71.100", "ImageSize": "1920 1080", "Megapixels": 2.0736, "AvgBitrate": 5567701, "Rotation": 0}, "summary": {"width": 1920, "height": 1080, "fps": 29.8799, "codec": "h264", "duration_s": 10.006727, "nb_streams": 2}, "when": "2025-08-20T13:20:46Z", "tool_versions": {"ingest": "ingest.v2"}}
{"sha256": "da7683e58ebd3684b21ea4815bf9bd3484ffebebe47484489da7c1df5e356f82", "stored_path": "C:\\Users\\jinoh\\Downloads\\personal projects\\Blackline-AI-Forensic-Tool-for-Detecting-Deepfake-and-Synthetic-Media\\data\\raw\\da7683e58ebd3684b21ea4815bf9bd3484ffebebe47484489da7c1df5e356f82\\aayfryxljh.mp4", "mime": "video/mp4", "probe": {"streams": [{"index": 0, "codec_name": "h264", "codec_long_name": "H.264 / AVC / MPEG-4 AVC / MPEG-4 part 10", "profile": "High", "codec_type": "video", "codec_tag_string": "avc1", "codec_tag": "0x31637661", "width": 1920, "height": 1080, "coded_width": 1920, "coded_height": 1080, "closed_captions": 0, "film_grain": 0, "has_b_frames": 2, "pix_fmt": "yuv420p", "level": 40, "chroma_location": "left", "field_order": "progressive", "refs": 1, "is_avc": "true", "nal_length_size": "4", "id": "0x1", "r_frame_rate": "299687/10000", "avg_frame_rate": "299687/10000", "time_base": "1/299687", "start_pts": 0, "start_time": "0.000000", "duration_ts": 3000000, "duration": "10.010444", "bit_rate": "8003636", "bits_per_raw_sample": "8", "nb_frames": "300", "extradata_size": 41, "disposition": {"default": 1, "dub": 0, "original": 0, "comment": 0, "lyrics": 0, "karaoke": 0, "forced": 0, "hearing_impaired": 0, "visual_impaired": 0, "clean_effects": 0, "attached_pic": 0, "timed_thumbnails": 0, "non_diegetic": 0, "captions": 0, "descriptions": 0, "metadata": 0, "dependent": 0, "still_image": 0, "multilayer": 0}, "tags": {"language": "und", "handler_name": "VideoHandler", "vendor_id": "[0][0][0][0]"}}, {"index": 1, "codec_name": "aac", "codec_long_name": "AAC (Advanced Audio Coding)", "profile": "LC", "codec_type": "audio", "codec_tag_string": "mp4a", "codec_tag": "0x6134706d", "sample_fmt": "fltp", "sample_rate": "44100", "channels": 1, "channel_layout": "mono", "bits_per_sample": 0, "initial_padding": 0, "id": "0x2", "r_frame_rate": "0/0", "avg_frame_rate": "0/0", "time_base": "1/44100", "start_pts": 0, "start_time": "0.000000", "duration_ts": 441000, "duration": "10.000000", "bit_rate": "69320", "nb_frames": "432", "extradata_size": 5, "disposition": {"default": 1, "dub": 0, "original": 0, "comment": 0, "lyrics": 0, "karaoke": 0, "forced": 0, "hearing_impaired": 0, "visual_impaired": 0, "clean_effects": 0, "attached_pic": 0, "timed_thumbnails": 0, "non_diegetic": 0, "captions": 0, "descriptions": 0, "metadata": 0, "dependent": 0, "still_image": 0, "multilayer": 0}, "tags": {"language": "und", "handler_name": "SoundHandler", "vendor_id": "[0][0][0][0]"}}], "format": {"filename": "C:\\Users\\jinoh\\Downloads\\personal projects\\Blackline-AI-Forensic-Tool-for-Detecting-Deepfake-and-Synthetic-Media\\data\\raw\\da7683e58ebd3684b21ea4815bf9bd3484ffebebe47484489da7c1df5e356f82\\aayfryxljh.mp4", "nb_streams": 2, "nb_programs": 0, "nb_stream_groups": 0, "format_name": "mov,mp4,m4a,3gp,3g2,mj2", "format_long_name": "QuickTime / MOV", "start_time": "0.000000", "duration": "10.010444", "size": "10114027", "bit_rate": "8082779", "probe_score": 100, "tags": {"major_brand": "isom", "minor_version": "512", "compatible_brands": "isomiso2avc1mp41", "encoder": "Lavf57.71.100"}}}, "exif": {"SourceFile": "C:/Users/jinoh/Downloads/personal projects/Blackline-AI-Forensic-Tool-for-Detecting-Deepfake-and-Synthetic-Media/data/raw/da7683e58ebd3684b21ea4815bf9bd3484ffebebe47484489da7c1df5e356f82/aayfryxljh.mp4", "ExifToolVersion": 13.34, "FileName": "aayfryxljh.mp4", "Directory": "C:/Users/jinoh/Downloads/personal projects/Blackline-AI-Forensic-Tool-for-Detecting-Deepfake-and-Synthetic-Media/data/raw/da7683e58ebd3684b21ea4815bf9bd3484ffebebe47484489da7c1df5e356f82", "FileSize": 10114027, "ZoneIdentifier": "Exists", "FileModifyDate": "2025:08:19 19:54:09+10:00", "FileAccessDate": "2025:08:20 23:20:46+10:00", "FileCreateDate": "2025:08:20 17:45:53+10:00", "FilePermissions": 100666, "FileType": "MP4", "FileTypeExtension": "MP4", "MIMEType": "video/mp4", "MajorBrand": "isom", "MinorVersion": "0.2.0", "CompatibleBrands": ["isom", "iso2", "avc1", "mp41"], "MediaDataSize": 10101846, "MediaDataOffset": 48, "MovieHeaderVersion": 0, "CreateDate": "0000:00:00 00:00:00", "ModifyDate": "0000:00:00 00:00:00", "TimeScale": 1000, "Duration": 10.024, "PreferredRate": 1, "PreferredVolume": 1, "PreviewTime": 0, "PreviewDuration": 0, "PosterTime": 0, "SelectionTime": 0, "SelectionDuration": 0, "CurrentTime": 0, "NextTrackID": 3, "TrackHeaderVersion": 0, "TrackCreateDate": "0000:00:00 00:00:00", "TrackModifyDate": "0000:00:00 00:00:00", "TrackID": 1, "TrackDuration": 10.011, "TrackLayer": 0, "TrackVolume": 0, "ImageWidth": 1920, "ImageHeight": 1080, "GraphicsMode": 0, "OpColor": "0 0 0", "CompressorID": "avc1", "SourceImageWidth": 1920, "SourceImageHeight": 1080, "XResolution": 72, "YResolution": 72, "BitDepth": 24, "VideoFrameRate": 29.9687, "MatrixStructure": "1 0 0 0 1 0 0 0 1", "MediaHeaderVersion": 0, "MediaCreateDate": "0000:00:00 00:00:00", "MediaModifyDate": "0000:00:00 00:00:00", "MediaTimeScale": 44100, "MediaDuration": 10.0232199546485, "MediaLanguageCode": "und", "HandlerDescription": "SoundHandler", "Balance": 0, "AudioFormat": "mp4a", "AudioChannels": 2, "AudioBitsPerSample": 16, "AudioSampleRate": 44100, "HandlerType": "mdir", "HandlerVendorID": "appl", "Encoder": "Lavf57.71.100", "ImageSize": "1920 1080", "Megapixels": 2.0736, "AvgBitrate": 8062128, "Rotation": 0}, "summary": {"width": 1920, "height": 1080, "fps": 29.9687, "codec": "h264", "duration_s": 10.010444, "nb_streams": 2}, "when": "2025-08-20T13:20:47Z", "tool_versions": {"ingest": "ingest.v2"}}
